<svg xmlns="http://www.w3.org/2000/svg" width="18" height="23" viewBox="0 0 18 23">
  <g id="Grupo_4174" data-name="Grupo 4174" transform="translate(-299 -306)">
    <rect id="Rectángulo_224" data-name="Rectángulo 224" width="2" height="18" rx="1" transform="translate(317 327) rotate(90)" fill="#939393"/>
    <path id="download-arrow" d="M14.4,10.931a.917.917,0,0,1,1.309,0,.94.94,0,0,1,0,1.309L10.22,17.725a.949.949,0,0,1-1.335,0L3.4,12.24A.926.926,0,1,1,4.71,10.931l3.914,3.927V.916A.921.921,0,0,1,9.552,0a.911.911,0,0,1,.916.916V14.858Z" transform="translate(298.874 306)" fill="#dd141d"/>
  </g>
</svg>
