<?xml version="1.0" encoding="utf-8"?>
<!-- Generator: Adobe Illustrator 23.0.2, SVG Export Plug-In . SVG Version: 6.00 Build 0)  -->
<svg version="1.1" id="Capa_1" xmlns="http://www.w3.org/2000/svg" xmlns:xlink="http://www.w3.org/1999/xlink" x="0px" y="0px"
	 viewBox="0 0 23.6 23.6" style="enable-background:new 0 0 23.6 23.6;" xml:space="preserve">
<style type="text/css">
	.st0{opacity:0.5;}
	.st1{fill:#CCCCCC;}
</style>
<g id="Grupo_4172" transform="translate(-325.918 -289.919)">
	<g id="plus" transform="translate(325.915 289.919)" class="st0">
		<path id="Trazado_2118" class="st1" d="M21.4,9.6h-7.5V2.1C14,1,13,0,11.8,0S9.7,0.9,9.6,2.1c0,0,0,0.1,0,0.1v7.5H2.1
			C1,9.7,0,10.7,0.1,11.9c0,1.1,0.9,2,2.1,2.1h7.5v7.5c0,1.2,0.9,2.2,2.1,2.2s2.2-0.9,2.2-2.1c0,0,0-0.1,0-0.1v-7.5h7.5
			c1.2,0,2.2-1,2.2-2.2S22.6,9.6,21.4,9.6L21.4,9.6z"/>
	</g>
</g>
</svg>
