<svg xmlns="http://www.w3.org/2000/svg" width="28.359" height="18.231" viewBox="0 0 28.359 18.231">
  <g id="eye-open" transform="translate(0.001 0)">
    <path id="Trazado_2096" data-name="Trazado 2096" d="M28.043,99.389a16.9,16.9,0,0,0-5.959-5.824,15.3,15.3,0,0,0-15.81,0A16.9,16.9,0,0,0,.316,99.389a2.043,2.043,0,0,0,0,2.184A16.9,16.9,0,0,0,6.275,107.4a15.328,15.328,0,0,0,15.81.008,16.79,16.79,0,0,0,5.959-5.832,2.043,2.043,0,0,0,0-2.184ZM10.785,95.06a4.631,4.631,0,0,1,3.395-1.416.76.76,0,1,1,0,1.519,3.3,3.3,0,0,0-3.292,3.292.76.76,0,1,1-1.52,0A4.631,4.631,0,0,1,10.785,95.06Zm10.271,10.588a13.257,13.257,0,0,1-13.752,0,16.334,16.334,0,0,1-5.278-5.167,15.554,15.554,0,0,1,6.029-5.586,6.916,6.916,0,0,0-.965,3.561,6.828,6.828,0,0,0,2.081,5.009,6.827,6.827,0,0,0,5.009,2.081,6.829,6.829,0,0,0,5.009-2.081,6.827,6.827,0,0,0,2.081-5.009,6.915,6.915,0,0,0-.966-3.561,15.555,15.555,0,0,1,6.029,5.586A16.33,16.33,0,0,1,21.056,105.648Z" transform="translate(0 -91.365)" fill="#939393"/>
  </g>
</svg>
