<svg xmlns="http://www.w3.org/2000/svg" width="32.25" height="37.872" viewBox="0 0 32.25 37.872"><defs><style>.a{fill:#575757;}</style></defs><path class="a" d="M32.213,10.275v-.029c-.016-.364-.027-.749-.034-1.177A4.014,4.014,0,0,0,28.4,5.136,15.575,15.575,0,0,1,17.8.668L17.773.645a2.424,2.424,0,0,0-3.294,0l-.025.023a15.577,15.577,0,0,1-10.6,4.468A4.014,4.014,0,0,0,.074,9.069c-.006.425-.018.81-.034,1.177l0,.068C-.047,14.754-.152,20.28,1.7,25.3a19.071,19.071,0,0,0,4.575,7.127,23.935,23.935,0,0,0,8.954,5.3,2.769,2.769,0,0,0,.367.1,2.711,2.711,0,0,0,1.066,0,2.771,2.771,0,0,0,.368-.1,23.95,23.95,0,0,0,8.944-5.3,19.1,19.1,0,0,0,4.575-7.128C32.4,20.26,32.3,14.723,32.213,10.275ZM28.461,24.522c-1.95,5.286-5.93,8.917-12.168,11.1a.571.571,0,0,1-.071.019.5.5,0,0,1-.2,0,.563.563,0,0,1-.07-.019C9.713,33.443,5.73,29.814,3.782,24.527c-1.7-4.623-1.607-9.7-1.522-14.171v-.025c.017-.385.029-.787.035-1.23A1.784,1.784,0,0,1,3.977,7.355,19.5,19.5,0,0,0,10.6,5.9a17.314,17.314,0,0,0,5.393-3.623.2.2,0,0,1,.275,0A17.32,17.32,0,0,0,21.656,5.9a19.5,19.5,0,0,0,6.618,1.456A1.784,1.784,0,0,1,29.956,9.1c.007.445.018.848.036,1.23C30.076,14.812,30.17,19.888,28.461,24.522Zm0,0" transform="translate(0 0.001)"/><path class="a" d="M99.837,128.41a9.438,9.438,0,1,0,9.438,9.438A9.449,9.449,0,0,0,99.837,128.41Zm0,16.654a7.216,7.216,0,1,1,7.216-7.216A7.224,7.224,0,0,1,99.837,145.064Zm0,0" transform="translate(-83.712 -118.912)"/><path class="a" d="M161.143,212.317,156.76,216.7l-1.19-1.19A1.111,1.111,0,1,0,154,217.082l1.976,1.976a1.111,1.111,0,0,0,1.571,0l5.17-5.17a1.111,1.111,0,0,0-1.572-1.571Zm0,0" transform="translate(-142.306 -196.31)"/></svg>