<svg xmlns="http://www.w3.org/2000/svg" width="24.938" height="32" viewBox="0 0 24.938 32"><defs><style>.a{fill:#575757;}.b{fill:#dd141d;fill-rule:evenodd;}</style></defs><g transform="translate(-476.145 -2952.831)"><path class="a" d="M485.3,2968.436H477.7a1.551,1.551,0,0,0-1.55,1.55v20.078a1.548,1.548,0,0,0,1.55,1.547h15.442a1.549,1.549,0,0,0,1.55-1.551v-14.59c-6.919,0-8.9-3.9-9.384-7.035m-6.325,5.149H484.9v1.8h-5.923Zm12.875,12.619H478.979v-1.8h12.875Zm0-3.6H478.979v-1.8h12.875Zm0-3.607H478.979v-1.8h12.875Z" transform="translate(0 -6.78)"/><path class="b" d="M501.586,2952.831a7.356,7.356,0,1,0,7.355,7.356,7.357,7.357,0,0,0-7.355-7.356m.731,10.97v.812c0,.191-.064.308-.31.308h-.832c-.244,0-.307-.117-.307-.308v-.833a2.379,2.379,0,0,1-2.133-2.187c0-.242.065-.3.308-.3h1.035c.245,0,.363.032.384.3a.729.729,0,0,0,.2.438,1.4,1.4,0,0,0,1.046.352c.576,0,1.044-.128,1.044-.726s-.949-.605-1.855-.9c-1.076-.339-2.069-.766-2.069-2.12a2.158,2.158,0,0,1,2.037-2.058v-.821c0-.191.063-.308.307-.308h.832c.247,0,.309.117.309.308v.852c1.035.215,1.94.832,1.94,1.93,0,.257-.064.3-.308.3H502.9c-.2,0-.236-.148-.288-.284a.721.721,0,0,0-.223-.321,1.409,1.409,0,0,0-.907-.288c-.351,0-.938.139-.938.619,0,.65,1.568.885,1.993,1.055.768.235,1.9.545,1.9,2a2.165,2.165,0,0,1-2.12,2.184" transform="translate(-7.857)"/></g></svg>