<svg xmlns="http://www.w3.org/2000/svg" width="27.956" height="30.422" viewBox="0 0 27.956 30.422"><defs><style>.a{fill:#575757;}.b{fill:#dd141d;}</style></defs><g transform="translate(7689.288 -3669.578)"><path class="a" d="M27.923,4.536A1.056,1.056,0,0,0,26.835,3.5C18.627,3.449,14.72.284,14.671.235a1.053,1.053,0,0,0-1.385,0C13.237.284,9.281,3.449,1.073,3.449A1.132,1.132,0,0,0-.015,4.536c-.049.989-.593,20.817,13.6,25.811a1.236,1.236,0,0,0,.692,0C28.516,25.3,27.923,5.525,27.923,4.536" transform="translate(-7689.259 3669.603)"/><path class="b" d="M17.656,2.861a.668.668,0,0,0-.688-.657C11.775,2.173,9.3.171,9.272.139a.666.666,0,0,0-.876,0C8.365.171,5.862,2.173.668,2.173a.716.716,0,0,0-.688.688c-.031.626-.375,13.171,8.6,16.331a.782.782,0,0,0,.438,0C18.032,16,17.656,3.487,17.656,2.861" transform="translate(-7684.125 3675.19)"/></g></svg>