<svg xmlns="http://www.w3.org/2000/svg" width="21.952" height="21.948" viewBox="0 0 21.952 21.948"><defs><style>.a{fill:#dd141d;}.b{fill:#575757;}</style></defs><g transform="translate(0 0.08)"><path class="a" d="M19.16,13.921,13.61,9.886a.669.669,0,0,0-1.063.54v8.066a.667.667,0,0,0,.366.6.674.674,0,0,0,.3.072.665.665,0,0,0,.393-.13L19.16,15a.664.664,0,0,0,0-1.08Z" transform="translate(-4.547 -3.838)"/><path class="b" d="M10.976,0A10.974,10.974,0,1,0,21.951,10.978,10.975,10.975,0,0,0,10.976,0Zm0,20.117a9.143,9.143,0,1,1,9.141-9.141A9.141,9.141,0,0,1,10.976,20.119Z" transform="translate(0 -0.082)"/></g></svg>