<svg xmlns="http://www.w3.org/2000/svg" width="28.133" height="30" viewBox="0 0 28.133 30"><defs><style>.a{fill:#575757;}</style></defs><g transform="translate(-887.612 -2954.257)"><path class="a" d="M910.758,2967.691a5.561,5.561,0,0,0-2.6,4.7v16.713H892.745v.867h16.713v-16.713c0-3.076.833-5.409,3.909-5.409Z" transform="translate(-2.185 -5.718)"/><path class="a" d="M894.645,2954.257a7.035,7.035,0,0,0-7.033,7.034v21.1h21.1v-21.1a7.036,7.036,0,0,1,7.035-7.034Zm5.275,19.341h-8.793v-1.759h8.793Zm0-3.517h-8.793v-1.757h8.793Zm0-3.518h-8.793v-1.757h8.793Zm5.272,7.035h-1.757v-1.759h1.757Zm0-3.517h-1.757v-1.757h1.757Zm0-3.518h-1.757v-1.757h1.757Z" transform="translate(0 0)"/></g></svg>